# xmcd CD database file
#
# Track frame offsets:
#	150
#	28516
#	59689
#	88397
#	112701
#	136709
#	162101
#	186496
#
# Disc length: 2825 seconds
#
# Revision: 0
# Processed by: cddbd v1.5.2PL0 Copyright (c) Steve Scherf et al.
# Submitted via: CDex 1.51
#
DISCID=660b0708
DTITLE=Ray Barretto - Homage to Art
DYEAR=2002
DGENRE=Jazz
TTITLE0=Close your Eyes
TTITLE1=United
TTITLE2=Sleeping Dancer Sleep On
TTITLE3=Noise in the Attic
TTITLE4=Ballde for Buhaina
TTITLE5=Frère Jacques
TTITLE6=Buh's Bossa
TTITLE7=Lester left Town
EXTD=YEAR: 2002
EXTT0=
EXTT1=
EXTT2=
EXTT3=
EXTT4=
EXTT5=
EXTT6=
EXTT7=
PLAYORDER=
